<?xml version="1.0" standalone="no"?>
<!DOCTYPE svg PUBLIC "-//W3C//DTD SVG 20010904//EN"
 "http://www.w3.org/TR/2001/REC-SVG-20010904/DTD/svg10.dtd">
<svg version="1.0" xmlns="http://www.w3.org/2000/svg"
 width="665.000000pt" height="375.000000pt" viewBox="0 0 665.000000 375.000000"
 preserveAspectRatio="xMidYMid meet">
<metadata>
Created by potrace 1.16, written by Peter Selinger 2001-2019
</metadata>
<g transform="translate(0.000000,375.000000) scale(0.100000,-0.100000)"
fill="#000000" stroke="none">
<path d="M3820 2673 c-8 -3 -77 -27 -152 -54 -130 -47 -139 -49 -185 -38 -68
16 -216 16 -300 0 -71 -14 -73 -14 -160 17 -92 32 -218 72 -228 72 -20 0 11
-224 45 -326 25 -76 25 -74 -11 -74 -30 0 -31 -2 -26 -33 4 -29 1 -37 -29 -61
-19 -15 -33 -21 -32 -14 4 18 -17 13 -103 -22 -56 -24 -87 -30 -143 -30 l-71
0 -67 -193 c-37 -105 -72 -209 -78 -229 -6 -21 -16 -38 -21 -38 -5 0 -33 21
-62 48 -29 26 -73 63 -97 83 l-45 37 149 150 149 151 -34 5 c-19 2 -72 9 -119
16 -47 6 -99 13 -116 16 -28 4 -38 -2 -88 -56 l-56 -61 0 55 c0 30 -4 57 -9
60 -6 4 -208 36 -228 36 -2 0 -3 -180 -3 -400 0 -220 1 -400 3 -400 1 0 52 22
112 48 l110 48 3 72 c2 40 5 72 8 72 3 0 53 -43 111 -95 58 -52 110 -95 116
-95 7 1 68 13 136 28 l123 27 17 45 16 45 57 3 56 3 12 -36 c10 -32 15 -36 38
-31 15 3 57 8 95 12 80 8 79 6 37 122 -16 46 -30 87 -30 92 0 6 23 10 50 10
58 0 58 1 29 88 l-21 62 -68 0 -68 0 -18 67 -18 66 24 16 c62 41 130 58 85 21
-22 -18 -18 -30 10 -30 25 0 26 0 19 -65 l-7 -65 77 0 76 0 1 -137 c1 -122 2
-158 8 -211 1 -10 25 -12 99 -10 l97 3 5 175 5 175 65 0 c56 0 65 2 62 18 -4
22 11 22 32 -1 15 -18 15 -28 -9 -168 -36 -214 -43 -194 70 -194 107 0 104 -2
122 89 l8 44 36 -52 37 -52 33 46 c28 39 34 43 40 28 4 -10 8 -37 8 -60 1 -42
1 -42 44 -47 125 -15 177 -16 177 -4 0 17 -39 325 -46 363 -5 28 0 35 57 79
l63 49 -44 13 c-48 14 -62 29 -54 59 5 20 5 20 -10 1 -9 -11 -16 -23 -16 -28
0 -4 -7 -8 -15 -8 -8 0 -15 -4 -15 -10 0 -16 -27 -11 -34 6 -19 51 3 103 53
124 39 16 121 5 121 -15 0 -8 11 -17 25 -20 14 -3 36 -7 50 -10 15 -3 22 -10
19 -18 -5 -13 27 -34 71 -48 16 -5 11 -9 -25 -20 -31 -9 -64 -32 -107 -74 -51
-50 -64 -70 -78 -119 -69 -240 164 -453 400 -365 70 26 109 59 153 128 31 48
36 66 40 132 4 66 1 84 -20 131 -49 107 -134 170 -248 184 -30 4 -67 13 -83
21 -23 12 -26 17 -17 33 9 16 8 21 -5 25 -8 3 -22 7 -31 10 -9 3 -14 11 -10
20 4 12 -4 15 -40 15 -44 0 -46 1 -40 25 4 14 5 25 4 25 -2 0 -19 -4 -38 -10
-24 -7 -45 -7 -67 1 -50 16 -55 29 -33 86 20 52 44 176 54 276 6 60 1 66 -44
50z m-15 -133 c-4 -14 -8 -32 -10 -40 -2 -8 -15 -58 -29 -110 -14 -52 -26
-104 -26 -114 0 -10 -13 -31 -29 -47 -38 -36 -51 -61 -51 -98 0 -23 -13 -44
-54 -88 -59 -63 -70 -63 -102 -1 -19 37 -33 35 -75 -8 -18 -20 -52 -45 -73
-56 -56 -28 -107 -13 -133 40 -25 51 -73 75 -139 68 l-51 -4 -6 50 c-7 54 -22
77 -72 108 -27 16 -36 34 -63 120 -18 56 -30 105 -27 110 3 5 1 10 -4 12 -5 1
-11 29 -13 60 -4 57 -4 57 21 52 14 -3 74 -23 133 -45 l106 -39 64 15 c79 18
234 19 311 1 57 -13 58 -13 155 26 53 21 107 40 121 43 13 2 26 7 29 10 11 11
23 -39 17 -65z m-854 -347 c50 -30 62 -98 23 -137 -18 -18 -34 -21 -34 -6 0 6
-4 10 -10 10 -5 0 -10 -7 -10 -15 0 -26 -19 -16 -34 18 l-14 32 -1 -29 c-1
-27 -3 -28 -33 -22 -18 4 -42 15 -52 26 -26 26 -13 67 31 95 18 11 32 26 33
33 0 18 67 15 101 -5z m-1090 -73 c17 0 19 -9 19 -89 0 -56 4 -92 11 -97 7 -4
46 29 97 81 l85 87 83 -7 c46 -4 84 -9 84 -12 0 -5 -143 -155 -212 -224 -36
-35 -35 -48 7 -88 44 -41 44 -51 3 -46 -18 3 -90 5 -160 5 l-128 0 0 202 0
201 46 -7 c26 -3 55 -6 65 -6z m687 -72 c5 -7 22 -52 37 -100 l26 -88 55 0
c30 0 54 -4 54 -10 0 -5 8 -10 17 -10 31 0 -3 -22 -44 -29 -35 -6 -38 -9 -36
-37 2 -27 0 -29 -25 -28 -15 1 -39 3 -53 3 -20 1 -30 10 -44 41 -10 23 -22 43
-26 46 -4 2 -15 -18 -24 -46 l-17 -50 -58 0 -58 0 35 113 c19 61 44 133 55
160 19 44 23 47 58 47 21 0 42 -6 48 -12z m1198 -133 c23 -197 33 -310 28
-314 -2 -2 -30 0 -61 5 l-58 9 -10 89 c-6 52 -15 91 -22 93 -7 3 -29 -21 -49
-51 -20 -31 -41 -56 -45 -56 -5 0 -27 27 -50 60 -23 32 -45 57 -49 55 -4 -3
-13 -39 -20 -82 -6 -43 -17 -84 -22 -90 -6 -7 -32 -13 -60 -13 -49 0 -49 0
-44 28 11 54 25 148 31 211 7 57 10 65 38 80 16 9 45 28 62 44 18 15 39 27 48
27 8 0 32 -20 53 -45 l39 -46 40 51 c39 50 41 51 90 48 l50 -3 11 -100z"/>
<path d="M3756 2569 c-10 -10 -32 -25 -50 -33 -17 -8 -46 -28 -65 -43 l-33
-28 34 -42 c19 -22 41 -55 48 -72 7 -18 18 -30 24 -28 18 6 67 176 64 222 -3
40 -4 41 -22 24z"/>
<path d="M2872 2552 c-7 -5 -6 -24 4 -62 23 -90 55 -180 64 -180 4 0 18 19 30
42 12 24 33 55 46 71 13 16 24 32 24 37 0 22 -149 103 -168 92z"/>
<path d="M3496 2305 c-16 -17 -27 -44 -31 -77 -9 -63 6 -78 74 -77 46 0 106
17 69 18 -14 1 -18 10 -18 36 0 47 -23 101 -49 115 -18 9 -25 7 -45 -15z"/>
<path d="M3103 2308 c-28 -35 -45 -83 -40 -114 4 -25 2 -34 -11 -37 -9 -3 8
-5 38 -6 89 -1 100 4 100 53 0 75 -56 143 -87 104z"/>
<path d="M3270 2120 c-19 -5 -41 -7 -47 -5 -19 7 -16 -2 19 -53 34 -50 66 -81
83 -81 23 0 127 121 114 133 -10 9 -138 13 -169 6z"/>
<path d="M4905 2141 l-100 -17 -3 -102 c-1 -56 -7 -102 -12 -102 -4 0 -10 4
-12 9 -1 6 -49 57 -106 115 l-104 105 -116 -16 c-64 -9 -119 -18 -121 -20 -3
-2 25 -34 62 -71 l67 -67 2 -239 3 -240 103 -21 c56 -12 105 -19 107 -17 3 3
5 52 5 109 0 64 4 103 10 101 5 -1 58 -51 117 -109 60 -58 132 -127 161 -153
l52 -49 0 402 c0 220 -3 401 -7 400 -5 -1 -53 -9 -108 -18z m56 -80 c5 9 9
-40 9 -126 l-1 -140 -25 40 c-16 24 -23 31 -19 17 6 -21 5 -23 -12 -14 -11 6
-25 7 -32 2 -17 -10 -7 -40 14 -40 20 0 20 -40 0 -41 -28 -3 -33 -4 -40 -11
-4 -4 -15 -3 -25 2 -10 5 -21 6 -25 2 -5 -4 -5 -1 -1 6 4 7 16 10 27 7 15 -5
19 -1 19 14 0 12 4 21 8 21 5 0 5 24 1 53 -6 42 -4 54 9 65 12 9 13 15 6 20
-6 4 -11 34 -10 70 1 34 -3 64 -9 66 -5 2 9 2 33 1 23 -1 46 3 50 9 4 6 8 1
10 -13 3 -19 6 -21 13 -10z m-397 4 c3 -8 12 -15 21 -15 8 0 15 -7 15 -15 0
-8 4 -15 9 -15 13 0 87 -73 94 -92 4 -10 13 -18 22 -18 13 0 19 -12 16 -32 0
-4 6 -5 14 -2 8 4 15 2 15 -3 0 -5 7 -18 16 -29 8 -10 13 -12 9 -4 -4 8 2 4
13 -9 11 -14 18 -31 15 -38 -6 -15 -39 -17 -48 -3 -11 18 -43 11 -48 -12 -6
-20 -7 -20 -31 -4 -24 15 -25 15 -19 -1 5 -15 4 -16 -8 -7 -8 7 -31 10 -53 9
-53 -3 -76 4 -69 22 3 9 -2 16 -14 19 -22 6 -28 45 -13 75 6 10 7 19 2 19 -5
0 -8 20 -7 44 2 34 -2 49 -21 69 -27 29 -32 49 -10 41 8 -3 23 -1 33 5 25 15
40 13 47 -4z"/>
<path d="M2945 1529 c-55 -5 -140 -16 -190 -24 -49 -9 -146 -20 -215 -26 -130
-11 -180 -26 -205 -63 -20 -27 -19 -76 2 -105 15 -22 15 -26 -2 -58 -22 -40
-17 -46 48 -64 64 -17 156 15 194 67 l20 27 10 -29 11 -30 123 18 123 17 48
-40 c53 -44 160 -97 253 -125 170 -51 427 4 572 122 48 40 62 41 213 18 58 -9
121 -17 140 -19 19 -2 57 -13 84 -25 30 -14 69 -22 100 -22 44 0 54 4 79 32
24 27 28 39 24 74 -4 36 0 45 31 78 22 23 32 41 27 47 -21 18 -132 53 -180 56
-58 3 -376 49 -450 65 -66 14 -732 21 -860 9z m195 -34 c0 -23 -4 -25 -45 -25
-33 0 -45 -4 -45 -15 0 -10 10 -15 30 -15 25 0 30 -4 30 -24 0 -19 -6 -25 -27
-28 -43 -5 -23 -23 25 -23 37 0 42 -3 42 -22 0 -22 -4 -23 -69 -23 l-69 0 -6
38 c-3 20 -7 62 -8 92 l-3 55 55 6 c30 3 63 6 73 7 12 2 17 -5 17 -23z m188 3
c-2 -19 -10 -24 -45 -26 -51 -4 -62 -32 -13 -32 25 0 30 -4 30 -25 0 -21 -5
-25 -30 -25 -49 0 -34 -19 17 -22 35 -2 49 -7 51 -20 3 -13 -8 -18 -51 -23
-92 -12 -91 -13 -97 93 -3 52 -3 96 -1 98 2 2 35 4 73 4 66 0 69 -1 66 -22z
m197 -3 c0 -14 -8 -21 -27 -23 -26 -3 -27 -5 -30 -75 -3 -69 -4 -72 -28 -72
-25 0 -25 1 -22 73 4 71 4 72 -21 72 -29 0 -42 14 -33 36 5 12 22 14 83 12 70
-3 78 -5 78 -23z m273 -10 c2 -2 -1 -12 -7 -24 -9 -15 -20 -20 -50 -18 -45 1
-71 -16 -71 -47 0 -32 19 -46 62 -46 32 0 38 -3 38 -20 0 -26 -21 -34 -66 -25
-52 9 -84 45 -84 92 0 48 22 80 63 92 27 8 105 5 115 -4z m-869 -21 c25 -31
27 -76 6 -94 -25 -20 -17 -33 15 -26 40 7 42 -20 3 -35 -22 -8 -35 -7 -63 8
-19 9 -38 19 -42 21 -5 2 -8 -5 -8 -16 0 -20 -36 -37 -45 -22 -5 8 -24 134
-25 162 0 20 18 25 87 27 45 1 54 -3 72 -25z m-199 -9 c0 -20 -5 -25 -26 -25
-28 0 -29 -5 -7 -127 5 -30 3 -33 -21 -33 -27 0 -27 1 -43 90 -8 42 -11 45
-41 48 -28 3 -33 7 -30 25 3 19 13 24 73 33 39 7 76 12 83 13 6 0 12 -10 12
-24z m1216 17 c9 -5 36 -189 30 -199 -6 -8 -46 12 -46 22 0 18 -68 24 -82 8
-11 -14 -48 -18 -48 -5 0 4 16 46 35 92 19 46 35 86 35 87 0 6 66 2 76 -5z
m168 -23 c49 -10 57 -15 54 -33 -2 -13 -10 -21 -23 -21 -33 -1 -43 -13 -50
-63 -3 -26 -10 -54 -14 -61 -13 -20 -46 -9 -44 14 1 11 5 46 9 78 6 54 5 57
-15 57 -14 0 -21 6 -21 20 0 24 20 25 104 9z m-1608 -25 c-3 -9 -6 -19 -6 -24
0 -4 -16 -11 -35 -14 -49 -10 -44 -26 9 -26 101 0 101 -97 1 -120 -68 -16 -87
-13 -83 13 2 18 11 23 47 27 57 6 68 30 14 30 -47 0 -83 23 -83 54 0 44 43 75
104 76 31 0 37 -3 32 -16z m1814 -20 c22 -9 40 -22 40 -29 0 -20 -23 -33 -45
-24 -49 19 -77 2 -31 -19 33 -15 59 -56 52 -80 -11 -35 -52 -45 -112 -27 -56
16 -60 20 -45 44 8 12 14 13 36 3 31 -14 65 -16 65 -3 0 5 -9 12 -20 16 -29 9
-70 63 -63 83 8 23 44 52 65 52 10 0 36 -7 58 -16z m-932 -139 c-80 -44 -267
-59 -366 -30 -105 31 -60 39 258 43 123 1 133 0 108 -13z"/>
</g>
</svg>
